<?xml version="1.0" encoding="UTF-8" standalone="no"?>
<!DOCTYPE svg PUBLIC "-//W3C//DTD SVG 1.1//EN" "http://www.w3.org/Graphics/SVG/1.1/DTD/svg11.dtd">
<svg width="100%" height="100%" viewBox="0 0 128 128" version="1.1" xmlns="http://www.w3.org/2000/svg" xmlns:xlink="http://www.w3.org/1999/xlink" xml:space="preserve" xmlns:serif="http://www.serif.com/" style="fill-rule:evenodd;clip-rule:evenodd;stroke-linejoin:round;stroke-miterlimit:1.5;">
    <g transform="matrix(1,0,0,1,-490.524,-1143.16)">
        <g>
            <g transform="matrix(0.156613,0,0,0.157918,394.327,973.559)">
                <rect x="614.234" y="1073.98" width="817.303" height="810.549" style="fill:none;"/>
            </g>
            <g id="csb-narrow-black.svg" transform="matrix(0.290249,0,0,0.290249,554.524,1207.16)">
                <g transform="matrix(1,0,0,1,-220.5,-90)">
                    <clipPath id="_clip1">
                        <rect x="0" y="0" width="441" height="180"/>
                    </clipPath>
                    <g clip-path="url(#_clip1)">
                        <g transform="matrix(0.616818,0,0,0.616818,-197.381,-337.612)">
                            <g>
                                <g>
                                    <g>
                                        <g transform="matrix(1,0,0,1,28.9988,178.344)">
                                            <g transform="matrix(1.13433,0,0,1.07042,-63.5373,-42.0423)">
                                                <path d="M439.5,526C457.989,526 473,541.907 473,561.5C473,581.093 457.989,597 439.5,597C421.011,597 406,581.093 406,561.5C406,541.907 421.011,526 439.5,526ZM439.5,539.494C450.961,539.494 460.266,549.355 460.266,561.5C460.266,573.645 450.961,583.506 439.5,583.506C428.039,583.506 418.734,573.645 418.734,561.5C418.734,549.355 428.039,539.494 439.5,539.494Z"/>
                                            </g>
                                            <g transform="matrix(0.826625,0,0,0.826625,81.0526,68.9164)">
                                                <path d="M467.5,397.5L435,559" style="fill:none;stroke:black;stroke-width:17.18px;"/>
                                            </g>
                                            <g transform="matrix(0.796056,0,0,0.796056,65.1602,119.795)">
                                                <path d="M435,559L319.5,587.388" style="fill:none;stroke:black;stroke-width:17.84px;"/>
                                            </g>
                                            <g transform="matrix(0.674595,0,0,0.674595,151.151,205.457)">
                                                <path d="M435,559L464.5,631.388" style="fill:none;stroke:black;stroke-width:21.05px;"/>
                                            </g>
                                            <g transform="matrix(0.774669,0,0,0.742492,84.1609,123.732)">
                                                <path d="M373.5,480.5L435,559" style="fill:none;stroke:black;stroke-width:18.72px;"/>
                                            </g>
                                            <path d="M373.5,480.5L467.5,397.5" style="fill:none;stroke:black;stroke-width:14.2px;"/>
                                            <g transform="matrix(1.425,0,0,1.46154,-155.175,-223.231)">
                                                <ellipse cx="371" cy="481.5" rx="20" ry="19.5" style="fill:rgb(234,125,59);"/>
                                            </g>
                                            <g transform="matrix(1.425,0,0,1.46154,-61.175,-306.231)">
                                                <ellipse cx="371" cy="481.5" rx="20" ry="19.5" style="fill:rgb(234,125,59);"/>
                                            </g>
                                            <g transform="matrix(1.425,0,0,1.46154,-64.175,-72.3423)">
                                                <ellipse cx="371" cy="481.5" rx="20" ry="19.5" style="fill:rgb(234,125,59);"/>
                                            </g>
                                            <g transform="matrix(1.425,0,0,1.46154,-209.175,-116.342)">
                                                <ellipse cx="371" cy="481.5" rx="20" ry="19.5" style="fill:rgb(234,125,59);"/>
                                            </g>
                                        </g>
                                        <g transform="matrix(1,0,0,1,26.7192,109.97)">
                                            <g transform="matrix(235,0,0,235,542,604.694)">
                                                <path d="M0.418,0.012C0.347,0.012 0.282,-0.004 0.225,-0.035C0.167,-0.066 0.122,-0.109 0.089,-0.164C0.056,-0.219 0.039,-0.281 0.039,-0.35C0.039,-0.419 0.056,-0.482 0.089,-0.537C0.122,-0.592 0.167,-0.634 0.225,-0.666C0.282,-0.697 0.347,-0.712 0.419,-0.712C0.48,-0.712 0.535,-0.701 0.584,-0.68C0.632,-0.659 0.674,-0.628 0.707,-0.588L0.603,-0.492C0.556,-0.547 0.497,-0.574 0.427,-0.574C0.384,-0.574 0.345,-0.565 0.311,-0.546C0.277,-0.527 0.251,-0.5 0.232,-0.466C0.213,-0.432 0.203,-0.393 0.203,-0.35C0.203,-0.307 0.213,-0.268 0.232,-0.234C0.251,-0.2 0.277,-0.173 0.311,-0.155C0.345,-0.136 0.384,-0.126 0.427,-0.126C0.497,-0.126 0.556,-0.154 0.603,-0.209L0.707,-0.113C0.674,-0.072 0.632,-0.041 0.583,-0.02C0.534,0.001 0.479,0.012 0.418,0.012Z" style="fill-rule:nonzero;"/>
                                            </g>
                                            <g transform="matrix(235,0,0,235,700.08,604.694)">
                                                <path d="M0.313,0.012C0.258,0.012 0.204,0.004 0.153,-0.011C0.101,-0.025 0.059,-0.045 0.028,-0.069L0.083,-0.191C0.113,-0.169 0.149,-0.151 0.19,-0.138C0.231,-0.125 0.273,-0.118 0.314,-0.118C0.36,-0.118 0.394,-0.125 0.416,-0.139C0.438,-0.152 0.449,-0.17 0.449,-0.193C0.449,-0.21 0.443,-0.224 0.43,-0.234C0.417,-0.246 0.4,-0.254 0.38,-0.261C0.359,-0.268 0.332,-0.275 0.297,-0.283C0.244,-0.296 0.2,-0.308 0.166,-0.321C0.132,-0.334 0.103,-0.354 0.079,-0.382C0.054,-0.41 0.042,-0.447 0.042,-0.494C0.042,-0.535 0.053,-0.572 0.075,-0.605C0.097,-0.637 0.13,-0.664 0.174,-0.683C0.219,-0.702 0.273,-0.712 0.337,-0.712C0.382,-0.712 0.425,-0.707 0.468,-0.696C0.511,-0.685 0.548,-0.67 0.58,-0.65L0.53,-0.527C0.465,-0.564 0.401,-0.582 0.336,-0.582C0.291,-0.582 0.257,-0.575 0.235,-0.56C0.214,-0.545 0.203,-0.526 0.203,-0.502C0.203,-0.478 0.216,-0.46 0.241,-0.449C0.266,-0.437 0.304,-0.425 0.355,-0.414C0.408,-0.401 0.452,-0.389 0.486,-0.376C0.52,-0.363 0.549,-0.343 0.574,-0.316C0.598,-0.289 0.61,-0.252 0.61,-0.205C0.61,-0.165 0.599,-0.129 0.577,-0.096C0.554,-0.063 0.521,-0.036 0.476,-0.017C0.431,0.002 0.377,0.012 0.313,0.012Z" style="fill-rule:nonzero;"/>
                                            </g>
                                            <g transform="matrix(235,0,0,235,837.245,604.694)">
                                                <path d="M0.597,-0.364C0.637,-0.351 0.668,-0.33 0.691,-0.301C0.714,-0.271 0.725,-0.234 0.725,-0.191C0.725,-0.13 0.701,-0.083 0.654,-0.05C0.606,-0.017 0.536,-0 0.445,-0L0.083,-0L0.083,-0.7L0.425,-0.7C0.51,-0.7 0.576,-0.684 0.622,-0.651C0.667,-0.618 0.69,-0.574 0.69,-0.518C0.69,-0.484 0.682,-0.454 0.666,-0.427C0.649,-0.4 0.626,-0.379 0.597,-0.364ZM0.244,-0.578L0.244,-0.413L0.405,-0.413C0.445,-0.413 0.475,-0.42 0.496,-0.434C0.517,-0.448 0.527,-0.469 0.527,-0.496C0.527,-0.523 0.517,-0.544 0.496,-0.558C0.475,-0.571 0.445,-0.578 0.405,-0.578L0.244,-0.578ZM0.433,-0.122C0.476,-0.122 0.508,-0.129 0.53,-0.143C0.551,-0.157 0.562,-0.179 0.562,-0.208C0.562,-0.266 0.519,-0.295 0.433,-0.295L0.244,-0.295L0.244,-0.122L0.433,-0.122Z" style="fill-rule:nonzero;"/>
                                            </g>
                                        </g>
                                        <g transform="matrix(1.23493,0,0,1.23493,-715.914,194.137)">
                                            <g transform="matrix(40.7388,0,0,40.7388,1046,480.5)">
                                                <path d="M0.418,0.008C0.348,0.008 0.285,-0.008 0.229,-0.039C0.172,-0.07 0.128,-0.112 0.096,-0.167C0.064,-0.221 0.048,-0.282 0.048,-0.35C0.048,-0.418 0.064,-0.479 0.096,-0.534C0.128,-0.588 0.172,-0.63 0.229,-0.662C0.286,-0.693 0.349,-0.708 0.419,-0.708C0.474,-0.708 0.524,-0.699 0.569,-0.681C0.614,-0.662 0.653,-0.635 0.685,-0.599L0.62,-0.536C0.567,-0.591 0.502,-0.619 0.423,-0.619C0.371,-0.619 0.324,-0.607 0.282,-0.584C0.24,-0.561 0.207,-0.529 0.184,-0.488C0.16,-0.447 0.148,-0.401 0.148,-0.35C0.148,-0.299 0.16,-0.254 0.184,-0.213C0.207,-0.172 0.24,-0.139 0.282,-0.116C0.324,-0.093 0.371,-0.081 0.423,-0.081C0.501,-0.081 0.567,-0.109 0.62,-0.165L0.685,-0.102C0.653,-0.066 0.614,-0.039 0.569,-0.02C0.523,-0.001 0.473,0.008 0.418,0.008Z" style="fill-rule:nonzero;"/>
                                            </g>
                                            <g transform="matrix(40.7388,0,0,40.7388,1074.84,480.5)">
                                                <path d="M0.421,0.008C0.35,0.008 0.287,-0.008 0.23,-0.039C0.173,-0.07 0.129,-0.112 0.097,-0.167C0.064,-0.222 0.048,-0.283 0.048,-0.35C0.048,-0.417 0.064,-0.478 0.097,-0.533C0.129,-0.588 0.173,-0.63 0.23,-0.662C0.287,-0.693 0.35,-0.708 0.421,-0.708C0.491,-0.708 0.554,-0.693 0.611,-0.662C0.668,-0.63 0.712,-0.588 0.744,-0.534C0.776,-0.479 0.792,-0.418 0.792,-0.35C0.792,-0.282 0.776,-0.221 0.744,-0.167C0.712,-0.112 0.668,-0.07 0.611,-0.039C0.554,-0.008 0.491,0.008 0.421,0.008ZM0.421,-0.081C0.472,-0.081 0.519,-0.093 0.56,-0.116C0.601,-0.139 0.633,-0.172 0.657,-0.213C0.68,-0.254 0.692,-0.299 0.692,-0.35C0.692,-0.401 0.68,-0.447 0.657,-0.488C0.633,-0.529 0.601,-0.561 0.56,-0.584C0.519,-0.607 0.472,-0.619 0.421,-0.619C0.37,-0.619 0.323,-0.607 0.281,-0.584C0.24,-0.561 0.207,-0.529 0.184,-0.488C0.16,-0.447 0.148,-0.401 0.148,-0.35C0.148,-0.299 0.16,-0.254 0.184,-0.213C0.207,-0.172 0.24,-0.139 0.281,-0.116C0.323,-0.093 0.37,-0.081 0.421,-0.081Z" style="fill-rule:nonzero;"/>
                                            </g>
                                            <g transform="matrix(40.7388,0,0,40.7388,1109.06,480.5)">
                                                <path d="M0.754,-0L0.753,-0.51L0.5,-0.085L0.454,-0.085L0.201,-0.507L0.201,-0L0.105,-0L0.105,-0.7L0.187,-0.7L0.479,-0.208L0.767,-0.7L0.849,-0.7L0.85,-0L0.754,-0Z" style="fill-rule:nonzero;"/>
                                            </g>
                                            <g transform="matrix(40.7388,0,0,40.7388,1147.97,480.5)">
                                                <path d="M0.378,-0.7C0.469,-0.7 0.54,-0.678 0.592,-0.635C0.644,-0.592 0.67,-0.532 0.67,-0.456C0.67,-0.38 0.644,-0.32 0.592,-0.277C0.54,-0.234 0.469,-0.212 0.378,-0.212L0.205,-0.212L0.205,-0L0.105,-0L0.105,-0.7L0.378,-0.7ZM0.375,-0.299C0.438,-0.299 0.487,-0.313 0.52,-0.34C0.553,-0.367 0.57,-0.405 0.57,-0.456C0.57,-0.507 0.553,-0.546 0.52,-0.573C0.487,-0.6 0.438,-0.613 0.375,-0.613L0.205,-0.613L0.205,-0.299L0.375,-0.299Z" style="fill-rule:nonzero;"/>
                                            </g>
                                            <g transform="matrix(40.7388,0,0,40.7388,1177.06,480.5)">
                                                <path d="M0.395,0.008C0.302,0.008 0.229,-0.019 0.177,-0.072C0.125,-0.125 0.099,-0.202 0.099,-0.302L0.099,-0.7L0.199,-0.7L0.199,-0.306C0.199,-0.156 0.265,-0.081 0.396,-0.081C0.46,-0.081 0.509,-0.1 0.543,-0.137C0.577,-0.173 0.594,-0.23 0.594,-0.306L0.594,-0.7L0.691,-0.7L0.691,-0.302C0.691,-0.201 0.665,-0.125 0.613,-0.071C0.561,-0.019 0.488,0.008 0.395,0.008Z" style="fill-rule:nonzero;"/>
                                            </g>
                                            <g transform="matrix(40.7388,0,0,40.7388,1208.75,480.5)">
                                                <path d="M0.244,-0.613L0.004,-0.613L0.004,-0.7L0.583,-0.7L0.583,-0.613L0.343,-0.613L0.343,-0L0.244,-0L0.244,-0.613Z" style="fill-rule:nonzero;"/>
                                            </g>
                                            <g transform="matrix(40.7388,0,0,40.7388,1231.24,480.5)">
                                                <path d="M0.551,-0.175L0.179,-0.175L0.102,-0L-0.001,-0L0.316,-0.7L0.415,-0.7L0.733,-0L0.628,-0L0.551,-0.175ZM0.516,-0.255L0.365,-0.598L0.214,-0.255L0.516,-0.255Z" style="fill-rule:nonzero;"/>
                                            </g>
                                            <g transform="matrix(40.7388,0,0,40.7388,1259.63,480.5)">
                                                <path d="M0.244,-0.613L0.004,-0.613L0.004,-0.7L0.583,-0.7L0.583,-0.613L0.343,-0.613L0.343,-0L0.244,-0L0.244,-0.613Z" style="fill-rule:nonzero;"/>
                                            </g>
                                            <g transform="matrix(40.7388,0,0,40.7388,1283.55,480.5)">
                                                <rect x="0.105" y="-0.7" width="0.1" height="0.7"/>
                                            </g>
                                            <g transform="matrix(40.7388,0,0,40.7388,1296.18,480.5)">
                                                <path d="M0.421,0.008C0.35,0.008 0.287,-0.008 0.23,-0.039C0.173,-0.07 0.129,-0.112 0.097,-0.167C0.064,-0.222 0.048,-0.283 0.048,-0.35C0.048,-0.417 0.064,-0.478 0.097,-0.533C0.129,-0.588 0.173,-0.63 0.23,-0.662C0.287,-0.693 0.35,-0.708 0.421,-0.708C0.491,-0.708 0.554,-0.693 0.611,-0.662C0.668,-0.63 0.712,-0.588 0.744,-0.534C0.776,-0.479 0.792,-0.418 0.792,-0.35C0.792,-0.282 0.776,-0.221 0.744,-0.167C0.712,-0.112 0.668,-0.07 0.611,-0.039C0.554,-0.008 0.491,0.008 0.421,0.008ZM0.421,-0.081C0.472,-0.081 0.519,-0.093 0.56,-0.116C0.601,-0.139 0.633,-0.172 0.657,-0.213C0.68,-0.254 0.692,-0.299 0.692,-0.35C0.692,-0.401 0.68,-0.447 0.657,-0.488C0.633,-0.529 0.601,-0.561 0.56,-0.584C0.519,-0.607 0.472,-0.619 0.421,-0.619C0.37,-0.619 0.323,-0.607 0.281,-0.584C0.24,-0.561 0.207,-0.529 0.184,-0.488C0.16,-0.447 0.148,-0.401 0.148,-0.35C0.148,-0.299 0.16,-0.254 0.184,-0.213C0.207,-0.172 0.24,-0.139 0.281,-0.116C0.323,-0.093 0.37,-0.081 0.421,-0.081Z" style="fill-rule:nonzero;"/>
                                            </g>
                                            <g transform="matrix(40.7388,0,0,40.7388,1330.4,480.5)">
                                                <path d="M0.707,-0.7L0.707,-0L0.625,-0L0.205,-0.522L0.205,-0L0.105,-0L0.105,-0.7L0.187,-0.7L0.607,-0.178L0.607,-0.7L0.707,-0.7Z" style="fill-rule:nonzero;"/>
                                            </g>
                                            <g transform="matrix(40.7388,0,0,40.7388,1363.48,480.5)">
                                                <path d="M0.551,-0.175L0.179,-0.175L0.102,-0L-0.001,-0L0.316,-0.7L0.415,-0.7L0.733,-0L0.628,-0L0.551,-0.175ZM0.516,-0.255L0.365,-0.598L0.214,-0.255L0.516,-0.255Z" style="fill-rule:nonzero;"/>
                                            </g>
                                            <g transform="matrix(40.7388,0,0,40.7388,1393.3,480.5)">
                                                <path d="M0.105,-0.7L0.205,-0.7L0.205,-0.087L0.584,-0.087L0.584,-0L0.105,-0L0.105,-0.7Z" style="fill-rule:nonzero;"/>
                                            </g>
                                            <g transform="matrix(40.7388,0,0,40.7388,1046,521.239)">
                                                <path d="M0.309,0.008C0.256,0.008 0.205,-0 0.157,-0.017C0.108,-0.033 0.069,-0.054 0.041,-0.08L0.078,-0.158C0.105,-0.134 0.139,-0.115 0.181,-0.1C0.222,-0.085 0.265,-0.077 0.309,-0.077C0.367,-0.077 0.41,-0.087 0.439,-0.107C0.468,-0.126 0.482,-0.152 0.482,-0.185C0.482,-0.209 0.474,-0.229 0.459,-0.244C0.443,-0.259 0.424,-0.27 0.401,-0.278C0.378,-0.286 0.345,-0.295 0.303,-0.305C0.25,-0.318 0.208,-0.33 0.175,-0.343C0.143,-0.356 0.116,-0.375 0.093,-0.402C0.07,-0.428 0.058,-0.463 0.058,-0.508C0.058,-0.545 0.068,-0.579 0.087,-0.609C0.107,-0.639 0.137,-0.663 0.177,-0.681C0.217,-0.699 0.267,-0.708 0.326,-0.708C0.367,-0.708 0.408,-0.703 0.448,-0.692C0.488,-0.681 0.522,-0.666 0.551,-0.646L0.518,-0.566C0.489,-0.585 0.457,-0.599 0.424,-0.609C0.391,-0.618 0.358,-0.623 0.326,-0.623C0.269,-0.623 0.227,-0.613 0.199,-0.592C0.17,-0.571 0.156,-0.545 0.156,-0.512C0.156,-0.488 0.164,-0.469 0.18,-0.454C0.196,-0.439 0.216,-0.427 0.239,-0.419C0.263,-0.41 0.295,-0.401 0.336,-0.392C0.389,-0.379 0.431,-0.367 0.463,-0.354C0.495,-0.341 0.523,-0.322 0.546,-0.296C0.569,-0.27 0.58,-0.235 0.58,-0.191C0.58,-0.154 0.57,-0.121 0.55,-0.091C0.53,-0.06 0.5,-0.036 0.459,-0.019C0.418,-0.001 0.368,0.008 0.309,0.008Z" style="fill-rule:nonzero;"/>
                                            </g>
                                            <g transform="matrix(40.7388,0,0,40.7388,1068.84,521.239)">
                                                <path d="M0.373,-0.242L0.373,-0L0.274,-0L0.274,-0.244L-0.004,-0.7L0.103,-0.7L0.327,-0.331L0.552,-0.7L0.651,-0.7L0.373,-0.242Z" style="fill-rule:nonzero;"/>
                                            </g>
                                            <g transform="matrix(40.7388,0,0,40.7388,1092.75,521.239)">
                                                <path d="M0.309,0.008C0.256,0.008 0.205,-0 0.157,-0.017C0.108,-0.033 0.069,-0.054 0.041,-0.08L0.078,-0.158C0.105,-0.134 0.139,-0.115 0.181,-0.1C0.222,-0.085 0.265,-0.077 0.309,-0.077C0.367,-0.077 0.41,-0.087 0.439,-0.107C0.468,-0.126 0.482,-0.152 0.482,-0.185C0.482,-0.209 0.474,-0.229 0.459,-0.244C0.443,-0.259 0.424,-0.27 0.401,-0.278C0.378,-0.286 0.345,-0.295 0.303,-0.305C0.25,-0.318 0.208,-0.33 0.175,-0.343C0.143,-0.356 0.116,-0.375 0.093,-0.402C0.07,-0.428 0.058,-0.463 0.058,-0.508C0.058,-0.545 0.068,-0.579 0.087,-0.609C0.107,-0.639 0.137,-0.663 0.177,-0.681C0.217,-0.699 0.267,-0.708 0.326,-0.708C0.367,-0.708 0.408,-0.703 0.448,-0.692C0.488,-0.681 0.522,-0.666 0.551,-0.646L0.518,-0.566C0.489,-0.585 0.457,-0.599 0.424,-0.609C0.391,-0.618 0.358,-0.623 0.326,-0.623C0.269,-0.623 0.227,-0.613 0.199,-0.592C0.17,-0.571 0.156,-0.545 0.156,-0.512C0.156,-0.488 0.164,-0.469 0.18,-0.454C0.196,-0.439 0.216,-0.427 0.239,-0.419C0.263,-0.41 0.295,-0.401 0.336,-0.392C0.389,-0.379 0.431,-0.367 0.463,-0.354C0.495,-0.341 0.523,-0.322 0.546,-0.296C0.569,-0.27 0.58,-0.235 0.58,-0.191C0.58,-0.154 0.57,-0.121 0.55,-0.091C0.53,-0.06 0.5,-0.036 0.459,-0.019C0.418,-0.001 0.368,0.008 0.309,0.008Z" style="fill-rule:nonzero;"/>
                                            </g>
                                            <g transform="matrix(40.7388,0,0,40.7388,1115.8,521.239)">
                                                <path d="M0.244,-0.613L0.004,-0.613L0.004,-0.7L0.583,-0.7L0.583,-0.613L0.343,-0.613L0.343,-0L0.244,-0L0.244,-0.613Z" style="fill-rule:nonzero;"/>
                                            </g>
                                            <g transform="matrix(40.7388,0,0,40.7388,1137.87,521.239)">
                                                <path d="M0.613,-0.087L0.613,-0L0.105,-0L0.105,-0.7L0.599,-0.7L0.599,-0.613L0.205,-0.613L0.205,-0.398L0.556,-0.398L0.556,-0.313L0.205,-0.313L0.205,-0.087L0.613,-0.087Z" style="fill-rule:nonzero;"/>
                                            </g>
                                            <g transform="matrix(40.7388,0,0,40.7388,1163.32,521.239)">
                                                <path d="M0.754,-0L0.753,-0.51L0.5,-0.085L0.454,-0.085L0.201,-0.507L0.201,-0L0.105,-0L0.105,-0.7L0.187,-0.7L0.479,-0.208L0.767,-0.7L0.849,-0.7L0.85,-0L0.754,-0Z" style="fill-rule:nonzero;"/>
                                            </g>
                                            <g transform="matrix(40.7388,0,0,40.7388,1200.38,521.239)">
                                                <path d="M0.309,0.008C0.256,0.008 0.205,-0 0.157,-0.017C0.108,-0.033 0.069,-0.054 0.041,-0.08L0.078,-0.158C0.105,-0.134 0.139,-0.115 0.181,-0.1C0.222,-0.085 0.265,-0.077 0.309,-0.077C0.367,-0.077 0.41,-0.087 0.439,-0.107C0.468,-0.126 0.482,-0.152 0.482,-0.185C0.482,-0.209 0.474,-0.229 0.459,-0.244C0.443,-0.259 0.424,-0.27 0.401,-0.278C0.378,-0.286 0.345,-0.295 0.303,-0.305C0.25,-0.318 0.208,-0.33 0.175,-0.343C0.143,-0.356 0.116,-0.375 0.093,-0.402C0.07,-0.428 0.058,-0.463 0.058,-0.508C0.058,-0.545 0.068,-0.579 0.087,-0.609C0.107,-0.639 0.137,-0.663 0.177,-0.681C0.217,-0.699 0.267,-0.708 0.326,-0.708C0.367,-0.708 0.408,-0.703 0.448,-0.692C0.488,-0.681 0.522,-0.666 0.551,-0.646L0.518,-0.566C0.489,-0.585 0.457,-0.599 0.424,-0.609C0.391,-0.618 0.358,-0.623 0.326,-0.623C0.269,-0.623 0.227,-0.613 0.199,-0.592C0.17,-0.571 0.156,-0.545 0.156,-0.512C0.156,-0.488 0.164,-0.469 0.18,-0.454C0.196,-0.439 0.216,-0.427 0.239,-0.419C0.263,-0.41 0.295,-0.401 0.336,-0.392C0.389,-0.379 0.431,-0.367 0.463,-0.354C0.495,-0.341 0.523,-0.322 0.546,-0.296C0.569,-0.27 0.58,-0.235 0.58,-0.191C0.58,-0.154 0.57,-0.121 0.55,-0.091C0.53,-0.06 0.5,-0.036 0.459,-0.019C0.418,-0.001 0.368,0.008 0.309,0.008Z" style="fill-rule:nonzero;"/>
                                            </g>
                                            <g transform="matrix(40.7388,0,0,40.7388,1234.8,521.239)">
                                                <path d="M0.576,-0.363C0.617,-0.352 0.649,-0.331 0.672,-0.302C0.695,-0.272 0.707,-0.234 0.707,-0.189C0.707,-0.128 0.684,-0.082 0.639,-0.049C0.593,-0.016 0.526,-0 0.439,-0L0.105,-0L0.105,-0.7L0.419,-0.7C0.499,-0.7 0.561,-0.684 0.605,-0.652C0.648,-0.62 0.67,-0.576 0.67,-0.519C0.67,-0.482 0.662,-0.451 0.645,-0.424C0.627,-0.397 0.605,-0.377 0.576,-0.363ZM0.205,-0.619L0.205,-0.395L0.41,-0.395C0.461,-0.395 0.501,-0.405 0.529,-0.424C0.556,-0.443 0.57,-0.47 0.57,-0.507C0.57,-0.544 0.556,-0.572 0.529,-0.591C0.501,-0.61 0.461,-0.619 0.41,-0.619L0.205,-0.619ZM0.435,-0.081C0.492,-0.081 0.534,-0.09 0.563,-0.109C0.592,-0.128 0.606,-0.157 0.606,-0.197C0.606,-0.275 0.549,-0.314 0.435,-0.314L0.205,-0.314L0.205,-0.081L0.435,-0.081Z" style="fill-rule:nonzero;"/>
                                            </g>
                                            <g transform="matrix(40.7388,0,0,40.7388,1263.79,521.239)">
                                                <rect x="0.105" y="-0.7" width="0.1" height="0.7"/>
                                            </g>
                                            <g transform="matrix(40.7388,0,0,40.7388,1274.58,521.239)">
                                                <path d="M0.421,0.008C0.35,0.008 0.287,-0.008 0.23,-0.039C0.173,-0.07 0.129,-0.112 0.097,-0.167C0.064,-0.222 0.048,-0.283 0.048,-0.35C0.048,-0.417 0.064,-0.478 0.097,-0.533C0.129,-0.588 0.173,-0.63 0.23,-0.662C0.287,-0.693 0.35,-0.708 0.421,-0.708C0.491,-0.708 0.554,-0.693 0.611,-0.662C0.668,-0.63 0.712,-0.588 0.744,-0.534C0.776,-0.479 0.792,-0.418 0.792,-0.35C0.792,-0.282 0.776,-0.221 0.744,-0.167C0.712,-0.112 0.668,-0.07 0.611,-0.039C0.554,-0.008 0.491,0.008 0.421,0.008ZM0.421,-0.081C0.472,-0.081 0.519,-0.093 0.56,-0.116C0.601,-0.139 0.633,-0.172 0.657,-0.213C0.68,-0.254 0.692,-0.299 0.692,-0.35C0.692,-0.401 0.68,-0.447 0.657,-0.488C0.633,-0.529 0.601,-0.561 0.56,-0.584C0.519,-0.607 0.472,-0.619 0.421,-0.619C0.37,-0.619 0.323,-0.607 0.281,-0.584C0.24,-0.561 0.207,-0.529 0.184,-0.488C0.16,-0.447 0.148,-0.401 0.148,-0.35C0.148,-0.299 0.16,-0.254 0.184,-0.213C0.207,-0.172 0.24,-0.139 0.281,-0.116C0.323,-0.093 0.37,-0.081 0.421,-0.081Z" style="fill-rule:nonzero;"/>
                                            </g>
                                            <g transform="matrix(40.7388,0,0,40.7388,1306.96,521.239)">
                                                <path d="M0.105,-0.7L0.205,-0.7L0.205,-0.087L0.584,-0.087L0.584,-0L0.105,-0L0.105,-0.7Z" style="fill-rule:nonzero;"/>
                                            </g>
                                            <g transform="matrix(40.7388,0,0,40.7388,1328.78,521.239)">
                                                <path d="M0.421,0.008C0.35,0.008 0.287,-0.008 0.23,-0.039C0.173,-0.07 0.129,-0.112 0.097,-0.167C0.064,-0.222 0.048,-0.283 0.048,-0.35C0.048,-0.417 0.064,-0.478 0.097,-0.533C0.129,-0.588 0.173,-0.63 0.23,-0.662C0.287,-0.693 0.35,-0.708 0.421,-0.708C0.491,-0.708 0.554,-0.693 0.611,-0.662C0.668,-0.63 0.712,-0.588 0.744,-0.534C0.776,-0.479 0.792,-0.418 0.792,-0.35C0.792,-0.282 0.776,-0.221 0.744,-0.167C0.712,-0.112 0.668,-0.07 0.611,-0.039C0.554,-0.008 0.491,0.008 0.421,0.008ZM0.421,-0.081C0.472,-0.081 0.519,-0.093 0.56,-0.116C0.601,-0.139 0.633,-0.172 0.657,-0.213C0.68,-0.254 0.692,-0.299 0.692,-0.35C0.692,-0.401 0.68,-0.447 0.657,-0.488C0.633,-0.529 0.601,-0.561 0.56,-0.584C0.519,-0.607 0.472,-0.619 0.421,-0.619C0.37,-0.619 0.323,-0.607 0.281,-0.584C0.24,-0.561 0.207,-0.529 0.184,-0.488C0.16,-0.447 0.148,-0.401 0.148,-0.35C0.148,-0.299 0.16,-0.254 0.184,-0.213C0.207,-0.172 0.24,-0.139 0.281,-0.116C0.323,-0.093 0.37,-0.081 0.421,-0.081Z" style="fill-rule:nonzero;"/>
                                            </g>
                                            <g transform="matrix(40.7388,0,0,40.7388,1361.16,521.239)">
                                                <path d="M0.59,-0.354L0.686,-0.354L0.686,-0.081C0.651,-0.052 0.611,-0.03 0.565,-0.015C0.519,0 0.471,0.008 0.421,0.008C0.35,0.008 0.287,-0.008 0.23,-0.039C0.173,-0.07 0.129,-0.112 0.097,-0.167C0.064,-0.221 0.048,-0.282 0.048,-0.35C0.048,-0.418 0.064,-0.479 0.097,-0.534C0.129,-0.589 0.173,-0.631 0.231,-0.662C0.288,-0.693 0.352,-0.708 0.423,-0.708C0.479,-0.708 0.53,-0.699 0.576,-0.681C0.621,-0.662 0.66,-0.635 0.692,-0.6L0.63,-0.538C0.574,-0.592 0.506,-0.619 0.427,-0.619C0.374,-0.619 0.326,-0.608 0.283,-0.585C0.241,-0.562 0.208,-0.53 0.184,-0.489C0.16,-0.448 0.148,-0.401 0.148,-0.35C0.148,-0.299 0.16,-0.254 0.184,-0.213C0.208,-0.172 0.241,-0.139 0.283,-0.116C0.326,-0.093 0.373,-0.081 0.426,-0.081C0.489,-0.081 0.543,-0.096 0.59,-0.126L0.59,-0.354Z" style="fill-rule:nonzero;"/>
                                            </g>
                                            <g transform="matrix(40.7388,0,0,40.7388,1390.77,521.239)">
                                                <path d="M0.373,-0.242L0.373,-0L0.274,-0L0.274,-0.244L-0.004,-0.7L0.103,-0.7L0.327,-0.331L0.552,-0.7L0.651,-0.7L0.373,-0.242Z" style="fill-rule:nonzero;"/>
                                            </g>
                                        </g>
                                    </g>
                                </g>
                            </g>
                        </g>
                    </g>
                </g>
            </g>
        </g>
    </g>
</svg>
